<?xml version="1.0" standalone="no"?>
<!DOCTYPE svg PUBLIC "-//W3C//DTD SVG 20010904//EN"
 "http://www.w3.org/TR/2001/REC-SVG-20010904/DTD/svg10.dtd">
<svg version="1.0" xmlns="http://www.w3.org/2000/svg"
 width="244.000000pt" height="244.000000pt" viewBox="0 0 244.000000 244.000000"
 preserveAspectRatio="xMidYMid meet">
<metadata>
Created by potrace 1.14, written by Peter Selinger 2001-2017
</metadata>
<g transform="translate(0.000000,244.000000) scale(0.100000,-0.100000)"
fill="#000000" stroke="none">
<path d="M1040 2420 c0 -13 -7 -20 -20 -20 -13 0 -20 -7 -20 -20 0 -13 -7 -20
-20 -20 -19 0 -20 -7 -20 -100 0 -93 1 -100 20 -100 18 0 20 -7 20 -80 0 -73
2 -80 20 -80 18 0 20 -7 20 -60 0 -53 2 -60 20 -60 19 0 20 -7 20 -100 0 -93
-1 -100 -20 -100 -13 0 -20 -7 -20 -20 0 -13 -7 -20 -20 -20 -13 0 -20 -7 -20
-20 0 -13 7 -20 20 -20 13 0 20 -7 20 -20 0 -13 7 -20 20 -20 13 0 20 -7 20
-20 0 -13 -7 -20 -20 -20 -13 0 -20 -7 -20 -20 0 -17 -7 -20 -40 -20 -33 0
-40 -3 -40 -20 0 -17 7 -20 40 -20 33 0 40 -3 40 -20 0 -18 7 -20 80 -20 l80
0 0 -40 c0 -33 -3 -40 -20 -40 -17 0 -20 -7 -20 -40 0 -33 -3 -40 -20 -40 -18
0 -20 -7 -20 -60 0 -53 -2 -60 -20 -60 -18 0 -20 -7 -20 -60 0 -53 -2 -60 -20
-60 -18 0 -20 -7 -20 -80 0 -73 -2 -80 -20 -80 -13 0 -20 7 -20 20 0 17 -7 20
-40 20 -33 0 -40 3 -40 20 0 13 -7 20 -20 20 -13 0 -20 7 -20 20 0 13 -7 20
-20 20 -17 0 -20 7 -20 40 0 33 -3 40 -20 40 -13 0 -20 7 -20 20 0 13 -7 20
-20 20 -18 0 -20 7 -20 60 0 53 -2 60 -20 60 -18 0 -20 7 -20 80 0 73 -2 80
-20 80 -18 0 -20 7 -20 80 0 73 -2 80 -20 80 -17 0 -20 7 -20 40 0 33 -3 40
-20 40 -13 0 -20 7 -20 20 0 13 -7 20 -20 20 -17 0 -20 7 -20 40 0 33 -3 40
-20 40 -13 0 -20 7 -20 20 0 13 -7 20 -20 20 -13 0 -20 -7 -20 -20 0 -13 -7
-20 -20 -20 -17 0 -20 -7 -20 -40 0 -33 -3 -40 -20 -40 -17 0 -20 -7 -20 -40
0 -33 -3 -40 -20 -40 -18 0 -20 -7 -20 -80 0 -73 -2 -80 -20 -80 -19 0 -20 -7
-20 -120 0 -113 1 -120 20 -120 18 0 20 -7 20 -60 0 -53 2 -60 20 -60 17 0 20
-7 20 -40 0 -33 3 -40 20 -40 17 0 20 -7 20 -40 0 -33 3 -40 20 -40 13 0 20
-7 20 -20 0 -13 7 -20 20 -20 13 0 20 -7 20 -20 0 -13 7 -20 20 -20 13 0 20
-7 20 -20 0 -13 7 -20 20 -20 13 0 20 -7 20 -20 0 -13 7 -20 20 -20 13 0 20
-7 20 -20 0 -17 7 -20 40 -20 33 0 40 -3 40 -20 0 -13 7 -20 20 -20 13 0 20
-7 20 -20 0 -13 -7 -20 -20 -20 -19 0 -20 -7 -20 -100 0 -93 1 -100 20 -100
13 0 20 -7 20 -20 0 -13 7 -20 20 -20 13 0 20 -7 20 -20 0 -13 7 -20 20 -20
13 0 20 -7 20 -20 0 -17 -7 -20 -40 -20 -33 0 -40 -3 -40 -20 0 -13 -7 -20
-20 -20 -13 0 -20 -7 -20 -20 0 -13 -7 -20 -20 -20 -13 0 -20 -7 -20 -20 0
-13 -7 -20 -20 -20 -18 0 -20 -7 -20 -60 0 -53 2 -60 20 -60 13 0 20 -7 20
-20 0 -17 7 -20 40 -20 33 0 40 3 40 20 0 13 7 20 20 20 13 0 20 7 20 20 0 17
7 20 40 20 33 0 40 3 40 20 0 13 7 20 20 20 13 0 20 7 20 20 0 17 7 20 40 20
33 0 40 3 40 20 0 13 7 20 20 20 13 0 20 7 20 20 0 13 7 20 20 20 18 0 20 -7
20 -60 0 -53 2 -60 20 -60 13 0 20 -7 20 -20 0 -13 7 -20 20 -20 13 0 20 -7
20 -20 0 -18 7 -20 80 -20 73 0 80 2 80 20 0 13 7 20 20 20 13 0 20 7 20 20 0
13 7 20 20 20 13 0 20 7 20 20 0 13 7 20 20 20 13 0 20 -7 20 -20 0 -13 7 -20
20 -20 13 0 20 7 20 20 0 13 7 20 20 20 17 0 20 7 20 40 0 33 3 40 20 40 18 0
20 7 20 60 0 53 -2 60 -20 60 -18 0 -20 -7 -20 -60 0 -53 -2 -60 -20 -60 -17
0 -20 -7 -20 -40 0 -33 -3 -40 -20 -40 -13 0 -20 7 -20 20 0 13 -7 20 -20 20
-20 0 -20 7 -20 480 l0 480 40 0 c33 0 40 -3 40 -20 0 -17 7 -20 40 -20 33 0
40 3 40 20 0 13 7 20 20 20 13 0 20 -7 20 -20 0 -17 7 -20 40 -20 33 0 40 3
40 20 0 13 7 20 20 20 17 0 20 -7 20 -40 0 -33 -3 -40 -20 -40 -13 0 -20 -7
-20 -20 0 -13 -7 -20 -20 -20 -13 0 -20 -7 -20 -20 0 -13 -7 -20 -20 -20 -13
0 -20 -7 -20 -20 0 -13 -7 -20 -20 -20 -13 0 -20 7 -20 20 0 13 -7 20 -20 20
-13 0 -20 -7 -20 -20 0 -13 7 -20 20 -20 13 0 20 -7 20 -20 0 -13 7 -20 20
-20 13 0 20 7 20 20 0 13 7 20 20 20 13 0 20 7 20 20 0 13 7 20 20 20 18 0 20
-7 20 -80 0 -73 -2 -80 -20 -80 -19 0 -20 -7 -20 -180 0 -173 -1 -180 -20
-180 -19 0 -20 -7 -20 -160 0 -153 1 -160 20 -160 13 0 20 -7 20 -20 0 -13 7
-20 20 -20 13 0 20 -7 20 -20 0 -19 7 -20 100 -20 93 0 100 -1 100 -20 0 -13
7 -20 20 -20 13 0 20 -7 20 -20 0 -17 7 -20 40 -20 33 0 40 3 40 20 0 13 7 20
20 20 18 0 20 7 20 60 0 53 -2 60 -20 60 -13 0 -20 7 -20 20 0 13 -7 20 -20
20 -13 0 -20 7 -20 20 0 13 -7 20 -20 20 -18 0 -20 7 -20 80 0 73 2 80 20 80
13 0 20 7 20 20 0 13 7 20 20 20 18 0 20 7 20 60 0 53 -2 60 -20 60 -13 0 -20
7 -20 20 0 13 -7 20 -20 20 -13 0 -20 7 -20 20 0 17 -7 20 -40 20 -33 0 -40
-3 -40 -20 0 -13 -7 -20 -20 -20 -19 0 -20 7 -20 160 0 153 1 160 20 160 19 0
20 7 20 140 0 133 -1 140 -20 140 -17 0 -20 7 -20 40 0 33 -3 40 -20 40 -13 0
-20 7 -20 20 0 13 -7 20 -20 20 -17 0 -20 7 -20 40 l0 40 40 0 c33 0 40 3 40
20 0 17 7 20 40 20 33 0 40 3 40 20 0 13 7 20 20 20 13 0 20 7 20 20 0 13 7
20 20 20 13 0 20 7 20 20 0 13 7 20 20 20 13 0 20 7 20 20 0 13 -7 20 -20 20
-13 0 -20 7 -20 20 0 13 7 20 20 20 13 0 20 7 20 20 0 13 -7 20 -20 20 -13 0
-20 7 -20 20 0 13 -7 20 -20 20 -18 0 -20 7 -20 80 0 73 2 80 20 80 19 0 20 7
20 100 0 93 1 100 20 100 19 0 20 7 20 160 0 153 -1 160 -20 160 -13 0 -20 7
-20 20 0 17 -7 20 -40 20 -33 0 -40 -3 -40 -20 0 -13 -7 -20 -20 -20 -13 0
-20 -7 -20 -20 0 -13 -7 -20 -20 -20 -13 0 -20 -7 -20 -20 0 -13 -7 -20 -20
-20 -13 0 -20 -7 -20 -20 0 -13 -7 -20 -20 -20 -13 0 -20 -7 -20 -20 0 -13 -7
-20 -20 -20 -13 0 -20 -7 -20 -20 0 -13 -7 -20 -20 -20 -13 0 -20 -7 -20 -20
0 -13 -7 -20 -20 -20 -13 0 -20 7 -20 20 0 18 -7 20 -80 20 -73 0 -80 -2 -80
-20 0 -13 -7 -20 -20 -20 -13 0 -20 7 -20 20 0 17 -7 20 -40 20 -33 0 -40 3
-40 20 0 13 -7 20 -20 20 -13 0 -20 7 -20 20 0 13 -7 20 -20 20 -13 0 -20 7
-20 20 0 13 -7 20 -20 20 -13 0 -20 7 -20 20 0 13 -7 20 -20 20 -13 0 -20 7
-20 20 0 13 -7 20 -20 20 -13 0 -20 7 -20 20 0 17 -7 20 -40 20 -33 0 -40 -3
-40 -20z m80 -160 c0 -13 7 -20 20 -20 13 0 20 -7 20 -20 0 -13 7 -20 20 -20
13 0 20 -7 20 -20 0 -13 7 -20 20 -20 17 0 20 -7 20 -40 0 -33 3 -40 20 -40
13 0 20 -7 20 -20 0 -13 -7 -20 -20 -20 -13 0 -20 -7 -20 -20 0 -13 -7 -20
-20 -20 -13 0 -20 -7 -20 -20 0 -13 -7 -20 -20 -20 -13 0 -20 7 -20 20 0 13
-7 20 -20 20 -17 0 -20 7 -20 40 0 33 -3 40 -20 40 -19 0 -20 7 -20 100 0 93
1 100 20 100 13 0 20 -7 20 -20z m320 -480 c0 -93 1 -100 20 -100 13 0 20 -7
20 -20 0 -18 -7 -20 -80 -20 -73 0 -80 -2 -80 -20 0 -19 7 -20 100 -20 93 0
100 1 100 20 0 17 7 20 40 20 l40 0 0 -80 0 -80 -40 0 c-33 0 -40 3 -40 20 0
17 -7 20 -40 20 -33 0 -40 -3 -40 -20 0 -13 -7 -20 -20 -20 -13 0 -20 -7 -20
-20 0 -13 7 -20 20 -20 13 0 20 -7 20 -20 0 -19 -7 -20 -120 -20 -113 0 -120
1 -120 20 0 18 -7 20 -80 20 -73 0 -80 2 -80 20 0 13 7 20 20 20 13 0 20 7 20
20 0 13 7 20 20 20 13 0 20 7 20 20 0 13 -7 20 -20 20 -13 0 -20 7 -20 20 0
13 -7 20 -20 20 -13 0 -20 7 -20 20 0 17 7 20 40 20 33 0 40 3 40 20 0 13 7
20 20 20 13 0 20 -7 20 -20 0 -17 7 -20 40 -20 33 0 40 3 40 20 0 13 7 20 20
20 18 0 20 7 20 60 0 53 2 60 20 60 13 0 20 7 20 20 0 13 7 20 20 20 13 0 20
7 20 20 0 17 7 20 40 20 l40 0 0 -100z m360 80 c0 -13 7 -20 20 -20 13 0 20
-7 20 -20 0 -13 7 -20 20 -20 18 0 20 -7 20 -60 l0 -60 40 0 c33 0 40 -3 40
-20 0 -13 -7 -20 -20 -20 -13 0 -20 -7 -20 -20 0 -13 7 -20 20 -20 13 0 20 -7
20 -20 0 -13 -7 -20 -20 -20 -13 0 -20 -7 -20 -20 0 -13 -7 -20 -20 -20 -13 0
-20 -7 -20 -20 0 -17 -7 -20 -40 -20 -33 0 -40 -3 -40 -20 0 -13 -7 -20 -20
-20 -13 0 -20 7 -20 20 0 13 -7 20 -20 20 -13 0 -20 7 -20 20 0 13 -7 20 -20
20 -13 0 -20 -7 -20 -20 0 -13 -7 -20 -20 -20 -18 0 -20 7 -20 80 l0 80 40 0
c33 0 40 3 40 20 0 13 7 20 20 20 19 0 20 7 20 100 0 93 1 100 20 100 13 0 20
-7 20 -20z m-280 -80 c0 -13 -7 -20 -20 -20 -13 0 -20 7 -20 20 0 13 7 20 20
20 13 0 20 -7 20 -20z m200 0 c0 -13 -7 -20 -20 -20 -13 0 -20 7 -20 20 0 13
7 20 20 20 13 0 20 -7 20 -20z m-1200 -100 c0 -33 3 -40 20 -40 13 0 20 -7 20
-20 0 -13 7 -20 20 -20 17 0 20 -7 20 -40 0 -33 3 -40 20 -40 18 0 20 -7 20
-80 0 -73 2 -80 20 -80 18 0 20 -7 20 -60 0 -53 -2 -60 -20 -60 -13 0 -20 7
-20 20 0 17 -7 20 -40 20 -33 0 -40 3 -40 20 0 13 -7 20 -20 20 -13 0 -20 -7
-20 -20 0 -13 -7 -20 -20 -20 -13 0 -20 7 -20 20 0 13 -7 20 -20 20 -13 0 -20
-7 -20 -20 0 -13 -7 -20 -20 -20 -17 0 -20 -7 -20 -40 0 -33 -3 -40 -20 -40
-19 0 -20 7 -20 100 0 93 1 100 20 100 18 0 20 7 20 80 0 73 2 80 20 80 17 0
20 7 20 40 0 33 3 40 20 40 17 0 20 7 20 40 0 33 3 40 20 40 17 0 20 -7 20
-40z m1200 -660 c0 -13 -7 -20 -20 -20 -13 0 -20 7 -20 20 0 13 7 20 20 20 13
0 20 -7 20 -20z m-360 -720 c0 -93 -1 -100 -20 -100 -18 0 -20 -7 -20 -60 0
-53 -2 -60 -20 -60 -18 0 -20 7 -20 60 0 53 -2 60 -20 60 -18 0 -20 -7 -20
-60 0 -53 -2 -60 -20 -60 -18 0 -20 7 -20 60 0 53 -2 60 -20 60 -17 0 -20 -7
-20 -40 0 -33 -3 -40 -20 -40 -18 0 -20 7 -20 60 0 53 2 60 20 60 17 0 20 7
20 40 l0 40 40 0 c33 0 40 3 40 20 0 17 7 20 40 20 33 0 40 3 40 20 0 13 7 20
20 20 19 0 20 -7 20 -100z m400 80 c0 -13 7 -20 20 -20 17 0 20 -7 20 -40 0
-33 3 -40 20 -40 13 0 20 -7 20 -20 0 -13 -7 -20 -20 -20 -18 0 -20 -7 -20
-60 0 -53 -2 -60 -20 -60 -18 0 -20 7 -20 60 0 53 -2 60 -20 60 -18 0 -20 -7
-20 -60 0 -53 -2 -60 -20 -60 -18 0 -20 7 -20 60 0 53 -2 60 -20 60 -13 0 -20
7 -20 20 0 13 7 20 20 20 17 0 20 7 20 40 0 33 3 40 20 40 13 0 20 7 20 20 0
13 7 20 20 20 13 0 20 -7 20 -20z m-800 -80 c0 -13 7 -20 20 -20 13 0 20 7 20
20 0 13 7 20 20 20 17 0 20 -7 20 -40 0 -33 -3 -40 -20 -40 -13 0 -20 -7 -20
-20 0 -17 -7 -20 -40 -20 -33 0 -40 -3 -40 -20 0 -13 -7 -20 -20 -20 -13 0
-20 -7 -20 -20 0 -17 -7 -20 -40 -20 -33 0 -40 -3 -40 -20 0 -13 -7 -20 -20
-20 -13 0 -20 -7 -20 -20 0 -13 -7 -20 -20 -20 -13 0 -20 7 -20 20 0 13 -7 20
-20 20 -13 0 -20 7 -20 20 0 13 7 20 20 20 13 0 20 7 20 20 0 13 7 20 20 20
17 0 20 7 20 40 l0 40 60 0 c53 0 60 2 60 20 0 13 7 20 20 20 13 0 20 7 20 20
0 13 7 20 20 20 13 0 20 -7 20 -20z m960 -100 c0 -33 3 -40 20 -40 13 0 20 -7
20 -20 0 -13 7 -20 20 -20 13 0 20 -7 20 -20 0 -13 -7 -20 -20 -20 -13 0 -20
-7 -20 -20 0 -13 -7 -20 -20 -20 -13 0 -20 7 -20 20 0 13 -7 20 -20 20 -13 0
-20 7 -20 20 0 13 -7 20 -20 20 -13 0 -20 7 -20 20 0 13 7 20 20 20 17 0 20 7
20 40 0 33 3 40 20 40 17 0 20 -7 20 -40z"/>
<path d="M1280 1660 c0 -13 7 -20 20 -20 13 0 20 7 20 20 0 13 -7 20 -20 20
-13 0 -20 -7 -20 -20z"/>
<path d="M1400 1540 c0 -13 7 -20 20 -20 13 0 20 7 20 20 0 13 -7 20 -20 20
-13 0 -20 -7 -20 -20z"/>
<path d="M1800 1660 c0 -17 -7 -20 -40 -20 -33 0 -40 -3 -40 -20 0 -17 7 -20
40 -20 33 0 40 3 40 20 0 17 7 20 40 20 33 0 40 3 40 20 0 17 -7 20 -40 20
-33 0 -40 -3 -40 -20z"/>
<path d="M1720 1540 c0 -13 7 -20 20 -20 13 0 20 7 20 20 0 13 -7 20 -20 20
-13 0 -20 -7 -20 -20z"/>
<path d="M760 140 c0 -13 -7 -20 -20 -20 -13 0 -20 -7 -20 -20 0 -13 7 -20 20
-20 13 0 20 7 20 20 0 13 7 20 20 20 13 0 20 7 20 20 0 13 -7 20 -20 20 -13 0
-20 -7 -20 -20z"/>
<path d="M1880 140 c0 -13 7 -20 20 -20 13 0 20 -7 20 -20 0 -13 7 -20 20 -20
13 0 20 7 20 20 0 13 -7 20 -20 20 -13 0 -20 7 -20 20 0 13 -7 20 -20 20 -13
0 -20 -7 -20 -20z"/>
<path d="M1480 820 c0 -13 7 -20 20 -20 13 0 20 7 20 20 0 13 -7 20 -20 20
-13 0 -20 -7 -20 -20z"/>
<path d="M1560 660 c0 -13 -7 -20 -20 -20 -13 0 -20 -7 -20 -20 0 -13 7 -20
20 -20 13 0 20 7 20 20 0 13 7 20 20 20 13 0 20 7 20 20 0 13 -7 20 -20 20
-13 0 -20 -7 -20 -20z"/>
</g>
</svg>
